<?xml version="1.0" encoding="utf-8"?>
<!-- Generator: Adobe Illustrator 16.0.0, SVG Export Plug-In . SVG Version: 6.00 Build 0)  -->
<!DOCTYPE svg PUBLIC "-//W3C//DTD SVG 1.1//EN" "http://www.w3.org/Graphics/SVG/1.1/DTD/svg11.dtd">
<svg version="1.1" id="Layer_1" xmlns="http://www.w3.org/2000/svg" xmlns:xlink="http://www.w3.org/1999/xlink" x="0px" y="0px"
	 width="141.732px" height="255.118px" viewBox="0 0 141.732 255.118" enable-background="new 0 0 141.732 255.118"
	 xml:space="preserve">
<rect y="100.75" fill="#46398E" width="141.732" height="54.118"/>
<g>
	<defs>
		<rect id="SVGID_1_" width="141.732" height="255.118"/>
	</defs>
	<clipPath id="SVGID_2_">
		<use xlink:href="#SVGID_1_"  overflow="visible"/>
	</clipPath>
	<path clip-path="url(#SVGID_2_)" fill="#FFFFFF" d="M24.196,123.184v13.563c0,1.164,0.224,2.036,0.671,2.618
		c0.447,0.582,1.249,0.872,2.409,0.872c0.397,0,0.819-0.032,1.266-0.099s0.82-0.165,1.118-0.299l0.099,5.96
		c-0.563,0.199-1.275,0.373-2.136,0.522s-1.722,0.223-2.583,0.223c-1.656,0-3.046-0.208-4.172-0.622
		c-1.126-0.415-2.028-1.012-2.707-1.793c-0.679-0.779-1.167-1.71-1.465-2.788c-0.298-1.078-0.447-2.282-0.447-3.61v-14.547h-3.974
		v-6.06H16.2v-8.574h7.997v8.574h5.811v6.06H24.196z"/>
	<path clip-path="url(#SVGID_2_)" fill="#FFFFFF" d="M52.734,146.719v-3.997h-0.099c-0.795,1.259-1.93,2.227-3.403,2.904
		c-1.473,0.68-3.038,1.02-4.693,1.02c-1.855,0-3.511-0.365-4.967-1.093c-1.458-0.729-2.691-1.697-3.701-2.906
		c-1.01-1.208-1.78-2.607-2.309-4.197c-0.53-1.589-0.795-3.245-0.795-4.967c0-1.721,0.273-3.369,0.82-4.942
		c0.546-1.572,1.324-2.955,2.334-4.146c1.01-1.192,2.235-2.136,3.676-2.831c1.44-0.696,3.054-1.043,4.842-1.043
		c1.821,0,3.361,0.347,4.62,1.043c1.258,0.695,2.235,1.457,2.93,2.284h0.099v-15.447h8.146v38.319H52.734z M52.436,133.532
		c0-0.795-0.141-1.572-0.422-2.334c-0.282-0.762-0.679-1.44-1.192-2.037c-0.514-0.596-1.135-1.076-1.863-1.44
		c-0.729-0.364-1.557-0.547-2.483-0.547c-0.961,0-1.805,0.183-2.533,0.547c-0.729,0.364-1.341,0.836-1.838,1.416
		c-0.497,0.58-0.869,1.25-1.118,2.012c-0.248,0.762-0.372,1.54-0.372,2.334c0,0.795,0.124,1.582,0.372,2.36
		c0.249,0.777,0.621,1.465,1.118,2.061s1.109,1.076,1.838,1.44c0.728,0.364,1.572,0.547,2.533,0.547
		c0.926,0,1.754-0.183,2.483-0.547c0.728-0.364,1.349-0.845,1.863-1.44c0.513-0.596,0.91-1.275,1.192-2.037
		C52.295,135.105,52.436,134.327,52.436,133.532"/>
	<path clip-path="url(#SVGID_2_)" fill="#FFFFFF" d="M79.164,117.05h-2.015v-1.122h2.015v-3.138c0-0.623,0.094-1.139,0.282-1.548
		c0.189-0.408,0.423-0.738,0.703-0.987s0.591-0.426,0.935-0.53c0.342-0.104,0.667-0.156,0.975-0.156c0.588,0,1.07,0.083,1.448,0.25
		l-0.252,1.08c-0.28-0.138-0.658-0.208-1.133-0.208c-1.134,0-1.699,0.852-1.699,2.556v2.681h2.266v1.122h-2.266v8.478h-1.259V117.05
		z"/>
	<path clip-path="url(#SVGID_2_)" fill="#FFFFFF" d="M85.499,118.629c0-0.18-0.007-0.398-0.021-0.654
		c-0.014-0.257-0.025-0.516-0.031-0.78c-0.008-0.263-0.018-0.509-0.032-0.737c-0.014-0.229-0.021-0.406-0.021-0.53h1.259
		c0.014,0.36,0.024,0.706,0.031,1.039c0.007,0.332,0.024,0.547,0.053,0.644c0.321-0.568,0.734-1.032,1.238-1.392
		c0.503-0.36,1.119-0.541,1.846-0.541c0.126,0,0.248,0.011,0.367,0.031c0.119,0.021,0.241,0.046,0.367,0.073l-0.147,1.226
		c-0.167-0.055-0.328-0.083-0.481-0.083c-0.546,0-1.019,0.087-1.416,0.26c-0.399,0.173-0.729,0.412-0.986,0.717
		c-0.259,0.305-0.451,0.661-0.577,1.07c-0.126,0.409-0.188,0.849-0.188,1.319v5.237h-1.26V118.629z"/>
	<path clip-path="url(#SVGID_2_)" fill="#FFFFFF" d="M92.401,120.728c0-0.734,0.126-1.409,0.379-2.026
		c0.252-0.616,0.601-1.15,1.049-1.6c0.446-0.45,0.985-0.8,1.614-1.049c0.631-0.25,1.315-0.374,2.057-0.374
		c0.742,0,1.423,0.124,2.046,0.374c0.622,0.249,1.161,0.599,1.615,1.049c0.455,0.45,0.808,0.984,1.06,1.6
		c0.252,0.617,0.378,1.292,0.378,2.026s-0.126,1.41-0.378,2.026c-0.252,0.617-0.604,1.15-1.06,1.6
		c-0.454,0.45-0.993,0.8-1.615,1.049c-0.623,0.25-1.304,0.374-2.046,0.374c-0.741,0-1.426-0.124-2.057-0.374
		c-0.629-0.249-1.168-0.599-1.614-1.049c-0.448-0.45-0.797-0.983-1.049-1.6C92.527,122.138,92.401,121.462,92.401,120.728
		 M93.661,120.728c0,0.54,0.087,1.049,0.262,1.527s0.43,0.894,0.766,1.247s0.741,0.634,1.218,0.842
		c0.475,0.208,1.007,0.311,1.594,0.311c0.588,0,1.119-0.103,1.595-0.311c0.475-0.208,0.881-0.489,1.217-0.842
		c0.335-0.353,0.59-0.769,0.766-1.247c0.175-0.478,0.263-0.987,0.263-1.527s-0.088-1.049-0.263-1.527
		c-0.176-0.478-0.431-0.894-0.766-1.247c-0.336-0.353-0.742-0.634-1.217-0.842c-0.476-0.207-1.007-0.311-1.595-0.311
		c-0.587,0-1.119,0.104-1.594,0.311c-0.477,0.208-0.882,0.489-1.218,0.842s-0.591,0.769-0.766,1.247S93.661,120.188,93.661,120.728"
		/>
	<path clip-path="url(#SVGID_2_)" fill="#FFFFFF" d="M106.249,118.629c0-0.18-0.007-0.398-0.021-0.654
		c-0.014-0.257-0.024-0.516-0.03-0.78c-0.009-0.263-0.019-0.509-0.032-0.737c-0.015-0.229-0.021-0.406-0.021-0.53h1.259
		c0.015,0.36,0.024,0.706,0.031,1.039c0.007,0.332,0.025,0.547,0.053,0.644h0.063c0.252-0.526,0.671-0.98,1.259-1.361
		c0.587-0.381,1.272-0.572,2.057-0.572c0.755,0,1.369,0.118,1.846,0.354c0.475,0.235,0.85,0.543,1.122,0.924
		c0.272,0.381,0.462,0.821,0.566,1.32c0.105,0.498,0.157,1.011,0.157,1.538v5.714h-1.259v-5.652c0-0.388-0.035-0.765-0.104-1.133
		c-0.07-0.367-0.192-0.696-0.367-0.987c-0.176-0.291-0.419-0.522-0.734-0.696c-0.315-0.173-0.724-0.26-1.227-0.26
		c-0.463,0-0.899,0.08-1.313,0.239c-0.412,0.16-0.769,0.402-1.07,0.728c-0.301,0.325-0.538,0.734-0.713,1.226
		c-0.175,0.492-0.262,1.07-0.262,1.735v4.8h-1.259V118.629z"/>
	<path clip-path="url(#SVGID_2_)" fill="#FFFFFF" d="M123.495,117.05h-2.77v6.255c0,0.429,0.118,0.762,0.356,0.997
		c0.237,0.236,0.566,0.353,0.985,0.353c0.238,0,0.479-0.031,0.725-0.093s0.479-0.142,0.703-0.239l0.104,1.122
		c-0.238,0.083-0.511,0.159-0.818,0.229c-0.308,0.069-0.58,0.103-0.818,0.103c-0.447,0-0.832-0.065-1.154-0.197
		c-0.321-0.131-0.58-0.308-0.776-0.53c-0.195-0.221-0.339-0.481-0.43-0.779s-0.136-0.62-0.136-0.966v-6.255h-2.098v-1.122h2.098
		v-2.764h1.259v2.764h2.77V117.05z"/>
	<path clip-path="url(#SVGID_2_)" fill="#FFFFFF" d="M77.489,141.478c0-0.733,0.126-1.409,0.378-2.025s0.601-1.15,1.049-1.601
		c0.447-0.45,0.986-0.8,1.615-1.049c0.63-0.25,1.314-0.374,2.056-0.374c0.742,0,1.423,0.124,2.046,0.374
		c0.622,0.249,1.161,0.599,1.615,1.049c0.455,0.45,0.808,0.984,1.06,1.601s0.378,1.292,0.378,2.025c0,0.734-0.126,1.41-0.378,2.026
		c-0.252,0.617-0.604,1.149-1.06,1.6c-0.454,0.45-0.993,0.8-1.615,1.049c-0.623,0.25-1.304,0.374-2.046,0.374
		c-0.741,0-1.426-0.124-2.056-0.374c-0.629-0.249-1.168-0.599-1.615-1.049c-0.448-0.45-0.797-0.982-1.049-1.6
		C77.615,142.888,77.489,142.212,77.489,141.478 M78.748,141.478c0,0.54,0.087,1.049,0.262,1.527
		c0.175,0.478,0.431,0.894,0.767,1.247c0.336,0.353,0.74,0.634,1.217,0.842c0.475,0.208,1.007,0.311,1.594,0.311
		c0.588,0,1.119-0.103,1.595-0.311s0.882-0.489,1.218-0.842c0.335-0.354,0.59-0.77,0.765-1.247c0.175-0.479,0.263-0.987,0.263-1.527
		s-0.088-1.049-0.263-1.526c-0.175-0.479-0.43-0.895-0.765-1.247c-0.336-0.354-0.742-0.635-1.218-0.843
		c-0.476-0.207-1.007-0.311-1.595-0.311c-0.587,0-1.119,0.104-1.594,0.311c-0.477,0.208-0.881,0.489-1.217,0.843
		c-0.336,0.353-0.592,0.769-0.767,1.247C78.835,140.429,78.748,140.938,78.748,141.478"/>
	<path clip-path="url(#SVGID_2_)" fill="#FFFFFF" d="M91.63,137.8h-2.014v-1.122h2.014v-3.138c0-0.623,0.094-1.14,0.283-1.549
		c0.188-0.407,0.423-0.737,0.703-0.986c0.279-0.249,0.591-0.426,0.934-0.53c0.342-0.104,0.667-0.156,0.975-0.156
		c0.589,0,1.07,0.083,1.448,0.25l-0.252,1.08c-0.28-0.138-0.658-0.208-1.133-0.208c-1.133,0-1.699,0.853-1.699,2.557v2.681h2.267
		v1.122h-2.267v8.478H91.63V137.8z"/>
	<path clip-path="url(#SVGID_2_)" fill="#FFFFFF" d="M98.721,137.8h-2.014v-1.122h2.014v-3.138c0-0.623,0.094-1.14,0.283-1.549
		c0.189-0.407,0.423-0.737,0.703-0.986s0.591-0.426,0.934-0.53c0.342-0.104,0.667-0.156,0.976-0.156c0.588,0,1.069,0.083,1.447,0.25
		l-0.252,1.08c-0.279-0.138-0.657-0.208-1.133-0.208c-1.133,0-1.699,0.853-1.699,2.557v2.681h2.267v1.122h-2.267v8.478h-1.259V137.8
		z"/>
	<path clip-path="url(#SVGID_2_)" fill="#FFFFFF" d="M104.952,132.875c0-0.263,0.091-0.484,0.272-0.665
		c0.182-0.18,0.405-0.27,0.672-0.27c0.265,0,0.488,0.09,0.671,0.27c0.182,0.181,0.272,0.402,0.272,0.665s-0.091,0.485-0.272,0.665
		c-0.183,0.18-0.406,0.271-0.671,0.271c-0.267,0-0.49-0.091-0.672-0.271S104.952,133.138,104.952,132.875 M105.267,136.677h1.26
		v9.601h-1.26V136.677z"/>
	<path clip-path="url(#SVGID_2_)" fill="#FFFFFF" d="M117.791,144.865c-0.476,0.567-1.014,0.986-1.615,1.257
		c-0.602,0.27-1.251,0.405-1.951,0.405c-0.741,0-1.426-0.124-2.056-0.374c-0.63-0.249-1.168-0.6-1.615-1.05
		c-0.448-0.449-0.797-0.983-1.049-1.6s-0.378-1.292-0.378-2.026c0-0.733,0.126-1.41,0.378-2.025c0.252-0.616,0.601-1.15,1.049-1.601
		c0.447-0.449,0.985-0.8,1.615-1.05c0.63-0.249,1.314-0.374,2.056-0.374c0.714,0,1.375,0.146,1.982,0.438
		c0.608,0.291,1.15,0.698,1.627,1.226l-1.008,0.748c-0.363-0.402-0.763-0.717-1.195-0.946c-0.435-0.228-0.902-0.342-1.406-0.342
		c-0.587,0-1.119,0.104-1.594,0.312c-0.477,0.208-0.882,0.488-1.218,0.842c-0.336,0.353-0.591,0.769-0.766,1.247
		c-0.175,0.477-0.262,0.986-0.262,1.526s0.087,1.05,0.262,1.527s0.43,0.894,0.766,1.247c0.336,0.353,0.741,0.634,1.218,0.842
		c0.475,0.207,1.007,0.312,1.594,0.312c0.532,0,1.018-0.121,1.459-0.363c0.439-0.243,0.821-0.565,1.143-0.967L117.791,144.865z"/>
	<path clip-path="url(#SVGID_2_)" fill="#FFFFFF" d="M129.162,144.471c-0.489,0.733-1.095,1.26-1.814,1.579
		c-0.72,0.317-1.515,0.478-2.381,0.478c-0.741,0-1.413-0.125-2.015-0.374c-0.602-0.25-1.119-0.599-1.553-1.05
		c-0.433-0.45-0.765-0.983-0.996-1.601c-0.23-0.615-0.346-1.298-0.346-2.046c0-0.721,0.118-1.385,0.355-1.995
		c0.238-0.609,0.574-1.14,1.008-1.59c0.434-0.449,0.943-0.803,1.531-1.06c0.587-0.256,1.238-0.384,1.951-0.384
		c0.741,0,1.396,0.128,1.962,0.384c0.566,0.257,1.042,0.596,1.426,1.019c0.386,0.422,0.676,0.903,0.871,1.444
		c0.196,0.54,0.294,1.087,0.294,1.641v0.873h-8.141c0,0.264,0.053,0.6,0.158,1.009c0.104,0.408,0.297,0.807,0.577,1.194
		c0.278,0.388,0.652,0.72,1.122,0.997c0.469,0.277,1.072,0.416,1.814,0.416c0.644,0,1.267-0.152,1.867-0.457
		s1.063-0.721,1.385-1.247L129.162,144.471z M128.197,140.667c0-0.429-0.088-0.831-0.262-1.205
		c-0.175-0.374-0.413-0.702-0.714-0.986s-0.657-0.509-1.07-0.676c-0.412-0.166-0.849-0.249-1.311-0.249
		c-0.686,0-1.255,0.139-1.71,0.416c-0.454,0.276-0.815,0.595-1.08,0.954c-0.267,0.361-0.455,0.712-0.567,1.051
		s-0.168,0.57-0.168,0.695H128.197z"/>
	<path clip-path="url(#SVGID_2_)" fill="#FFFFFF" d="M72.15,124.47c0,1.927-1.563,3.49-3.491,3.49c-1.927,0-3.49-1.563-3.49-3.49
		c0-1.927,1.563-3.49,3.49-3.49C70.588,120.98,72.15,122.543,72.15,124.47"/>
	<path clip-path="url(#SVGID_2_)" fill="#FFFFFF" d="M72.15,133.839c0,1.927-1.563,3.489-3.491,3.489
		c-1.927,0-3.49-1.563-3.49-3.489c0-1.928,1.563-3.49,3.49-3.49C70.588,130.349,72.15,131.911,72.15,133.839"/>
	<path clip-path="url(#SVGID_2_)" fill="#FFFFFF" d="M72.15,143.207c0,1.927-1.563,3.49-3.491,3.49c-1.927,0-3.49-1.563-3.49-3.49
		s1.563-3.49,3.49-3.49C70.588,139.717,72.15,141.28,72.15,143.207"/>
</g>
<g>
	<defs>
		<rect id="SVGID_3_" width="141.732" height="255.118"/>
	</defs>
	<clipPath id="SVGID_4_">
		<use xlink:href="#SVGID_3_"  overflow="visible"/>
	</clipPath>
	<path clip-path="url(#SVGID_4_)" fill="#3D327E" d="M147.478,172.442c0,6.551-5.31,11.861-11.86,11.861s-11.86-5.311-11.86-11.861
		c0-6.55,5.31-11.86,11.86-11.86S147.478,165.893,147.478,172.442"/>
	<path clip-path="url(#SVGID_4_)" fill="#6C56A0" d="M147.478,204.282c0,6.551-5.31,11.861-11.86,11.861s-11.86-5.311-11.86-11.861
		c0-6.55,5.31-11.86,11.86-11.86S147.478,197.732,147.478,204.282"/>
	<path clip-path="url(#SVGID_4_)" fill="#A690C4" d="M147.478,236.123c0,6.55-5.31,11.86-11.86,11.86s-11.86-5.311-11.86-11.86
		c0-6.551,5.31-11.861,11.86-11.861S147.478,229.572,147.478,236.123"/>
</g>
</svg>
